<?xml version="1.0" encoding="utf-8"?>
<?xml-stylesheet type="text/xsl" href="rss1.xsl"?>
<rss version="2.0" xmlns:atom="http://www.w3.org/2005/Atom" xmlns:content="http://purl.org/rss/1.0/modules/content/" xmlns:dc="http://purl.org/dc/elements/1.1/" xmlns:media="http://search.yahoo.com/mrss/">
<channel>
 <title>Getty</title>
 <link>http://www.gettyimg.com/</link>
 <atom:link href="http://www.gettyimg.com/" rel="self" type="application/rss+xml" />

 
                <item>
                <title><![CDATA[【SD】DVD - Evanescence - Good Enough (CLEAN)]]></title>
                <link><![CDATA[https://sharemania.us/threads/evanescence-good-enough-clean.239289/]]></link>
                <description><![CDATA[<article>
<blockquote class="messageText SelectQuoteContainer ugc baseHtml">
<img src="https://i.postimg.cc/SqFryKND/Evanescence-Good-Enough-Copy-vob-flv-thumbs-2024-03-05-13-41-27.jpg" class="bbCodeImage LbImage" alt="[​IMG]" data-url="https://i.postimg.cc/SqFryKND/Evanescence-Good-Enough-Copy-vob-flv-thumbs-2024-03-05-13-41-27.jpg" style=""><br>
<div class="bbCodeBlock bbCodeVfcHH HiddenContent">
<div class="attribution type">Hidden Content:</div>
<blockquote>You must reply before you can see the hidden data contained here.</blockquote>
</div>i had vob clean but i lost it , i found a copy in my hard disk
<div class="messageTextEndMarker">&nbsp;</div>
</blockquote>
</article>]]></description>
                <author><![CDATA[krpro]]></author>
                </item>

                
                <item>
                <title><![CDATA[【PRORES HD】Becky Hill – Sunrise In The East (Live At Nickelodeon’s SlimeFest UK 2018) [ProRes 1080]]]></title>
                <link><![CDATA[https://sharemania.us/threads/becky-hill-%E2%80%93-sunrise-in-the-east-live-at-nickelodeon%E2%80%99s-slimefest-uk-2018-prores-1080.239290/]]></link>
                <description><![CDATA[<article>
<blockquote class="messageText SelectQuoteContainer ugc baseHtml">
<div style="text-align: center"><img src="https://i.ibb.co/bKrnSFb/20240305164157.gif" class="bbCodeImage LbImage" alt="[​IMG]" data-url="https://i.ibb.co/bKrnSFb/20240305164157.gif" style=""><br>
​</div>
<div class="ToggleTriggerAnchor bbCodeSpoilerContainer">
<button type="button" class="button bbCodeSpoilerButton ToggleTrigger Tooltip JsOnly" data-target="> .SpoilerTarget"><span>Spoiler: <span class="SpoilerTitle">ProRes</span></span></button>
<div class="SpoilerTarget bbCodeSpoilerText">
<div class="bbCodeBlock bbCodeCode">
<div class="type">Code:</div>
<pre>Format                                   : MPEG-4
Format profile                           : QuickTime
Codec ID                                 : qt   2005.03 (qt  )
File size                                : 4.51 GiB
Duration                                 : 3 min 24 s
Overall bit rate mode                    : Variable
Overall bit rate                         : 189 Mb/s
Frame rate                               : 25.000 FPS
Encoded date                             : 2023-11-07 11:55:43 UTC
Tagged date                              : 2023-11-07 11:56:39 UTC
Writing library                          : Apple QuickTime
TIM                                      : 00:00:00:00
TSC                                      : 25
TSZ                                      : 1

Video
ID                                       : 1
Format                                   : ProRes
Format version                           : Version 0
Format profile                           : 422 HQ
Codec ID                                 : apch
Duration                                 : 3 min 24 s
Bit rate mode                            : Variable
Bit rate                                 : 187 Mb/s
Width                                    : 1 920 pixels
Height                                   : 1 080 pixels
Display aspect ratio                     : 16:9
Frame rate mode                          : Constant
Frame rate                               : 25.000 FPS
Color space                              : YUV
Chroma subsampling                       : 4:2:2
Scan type                                : Progressive
Bits/(Pixel*Frame)                       : 3.606
Stream size                              : 4.46 GiB (99%)
Writing library                          : Apple
Language                                 : English
Encoded date                             : 2023-11-07 11:55:43 UTC
Tagged date                              : 2023-11-07 11:55:43 UTC
Color primaries                          : BT.709
Transfer characteristics                 : BT.709
Matrix coefficients                      : BT.709

Audio
ID                                       : 2
Format                                   : PCM
Format settings                          : Little / Signed
Codec ID                                 : in24
Duration                                 : 3 min 24 s
Bit rate mode                            : Constant
Bit rate                                 : 2 304 kb/s
Channel(s)                               : 2 channels
Channel layout                           : L R
Sampling rate                            : 48.0 kHz
Bit depth                                : 24 bits
Stream size                              : 56.2 MiB (1%)
Language                                 : English
Encoded date                             : 2023-11-07 11:55:43 UTC
Tagged date                              : 2023-11-07 11:55:43 UTC

Other
ID                                       : 3
Type                                     : Time code
Format                                   : QuickTime TC
Duration                                 : 3 min 24 s
Frame rate                               : 25.000 FPS
Time code of first frame                 : 00:00:00:00
Time code of last frame                  : 00:03:24:18
Time code, stripped                      : Yes
Language                                 : English
Encoded date                             : 2023-11-07 11:55:43 UTC
Tagged date                              : 2023-11-07 11:55:43 UTC</pre>
</div><div style="text-align: center">​</div></div>
</div><div style="text-align: center"><br>
<br>
<div class="bbCodeBlock bbCodeVfcHH HiddenContent">
<div class="attribution type">Hidden Content:</div>
<blockquote>You must reply before you can see the hidden data contained here.</blockquote>
</div></div>
<div class="messageTextEndMarker">&nbsp;</div>
</blockquote>
</article>]]></description>
                <author><![CDATA[fstambuk]]></author>
                </item>

                
                <item>
                <title><![CDATA[【DVD】DVD5 - Taylor Swift - Reputation (Japan Edition)]]></title>
                <link><![CDATA[https://sharemania.us/threads/taylor-swift-reputation-japan-edition.239288/]]></link>
                <description><![CDATA[<article>
<blockquote class="messageText SelectQuoteContainer ugc baseHtml">
<div style="text-align: center"><span style="font-size: 22px">DVD TAYLOR SWIFT - <span style="color: #ff8000">REPUTATION</span> (JAPAN EDITION)</span><br>
<br>
<img src="https://i.ebayimg.com/images/g/MDIAAOSwfqJkuhZf/s-l1200.webp" class="bbCodeImage LbImage" alt="[​IMG]" data-url="https://i.ebayimg.com/images/g/MDIAAOSwfqJkuhZf/s-l1200.webp" style=""> <br>
<br>
<div class="bbCodeBlock bbCodeVfcHH HiddenContent">
<div class="attribution type">Hidden Content:</div>
<blockquote>You must reply before you can see the hidden data contained here.</blockquote>
</div><iframe data-s9e-mediaembed="imgur" allowfullscreen="" loading="lazy" onload="var c=new MessageChannel;c.port1.onmessage=function(e){var d=e.data.split(' ');style.height=d[0]+'px';style.width=d[1]+'px'};contentWindow.postMessage('s9e:init','https://s9e.github.io',[c.port2])" scrolling="no" style="border: 0px; height: 429px; max-width: 100%; width: 540px;" src="https://s9e.github.io/iframe/2/imgur.min.html#QFY5aEw"></iframe><br>
<br>
​</div>
<div class="messageTextEndMarker">&nbsp;</div>
</blockquote>
</article>]]></description>
                <author><![CDATA[b.c44]]></author>
                </item>

                </channel></rss>